<svg xmlns="http://www.w3.org/2000/svg" version="1.1" xmlns:xlink="http://www.w3.org/1999/xlink" xmlns:svgjs="http://svgjs.com/svgjs" width="1440" height="560" preserveAspectRatio="none" viewBox="0 0 1440 560"><g mask="url(&quot;#SvgjsMask1007&quot;)" fill="none"><rect width="1440" height="560" x="0" y="0" fill="rgba(249, 91, 0, 1)"></rect><path d="M0,468.545C95.949,472.691,192.333,474.589,280.444,436.38C378.585,393.821,479.967,336.771,526.257,240.333C572.779,143.412,540.958,30.834,526.224,-75.66C511.412,-182.716,507.815,-297.125,440.227,-381.459C371.654,-467.022,266.295,-523.417,157.359,-535.915C55.283,-547.626,-33.113,-477.426,-131.259,-447.026C-227.563,-417.196,-350.821,-437.31,-414.175,-358.884C-477.605,-280.364,-448.297,-164.112,-441.138,-63.426C-435.248,19.404,-405.197,94.013,-376.432,171.911C-345.167,256.581,-336.18,356.932,-265.288,412.796C-192.848,469.88,-92.143,464.563,0,468.545" fill="#a73d00"></path><path d="M1440 954.2819999999999C1520.27 954.073 1603.878 963.179 1673.995 924.1030000000001 1746.04 883.952 1795.129 812.851 1828.844 737.579 1862.394 662.675 1875.372 580.318 1864.411 498.979 1853.386 417.168 1809.067 347.745 1766.758 276.862 1715.776 191.449 1686.027 74.81599999999997 1591.949 42.50800000000004 1498.111 10.283000000000015 1403.228 83.99700000000001 1310.896 120.31299999999999 1226.859 153.36700000000002 1145.3229999999999 186.505 1076.6770000000001 245.17899999999997 998.7950000000001 311.747 884.293 378.459 889.143 480.799 894.216 587.851 1036.871 628.398 1098.976 715.741 1145.3020000000001 780.894 1139.711 879.5029999999999 1205.22 925.325 1271.17 971.456 1359.517 954.492 1440 954.2819999999999" fill="#ff8e4c"></path></g><defs><mask id="SvgjsMask1007"><rect width="1440" height="560" fill="#ffffff"></rect></mask></defs></svg>